<?xml version="1.0" encoding="utf-8"?>
<!-- Generator: Adobe Illustrator 18.1.1, SVG Export Plug-In . SVG Version: 6.00 Build 0)  -->
<svg version="1.1" id="Layer_1" xmlns="http://www.w3.org/2000/svg" xmlns:xlink="http://www.w3.org/1999/xlink" x="0px" y="0px"
	 viewBox="338 26 124 409" enable-background="new 338 26 124 409" xml:space="preserve">
<g>
	<path d="M400.6,420.3c22.7,0,40.6-41.8,40.6-94.3h-82.4C358.8,378.5,377.9,420.3,400.6,420.3z"/>
	<path d="M422.1,105.1l13.1-8.4c3.6-2.4,4.8-4.8,4.8-9.6v-49c0-1.2-1.2-2.4-3.6-1.2l-34.6,20.3V44.2c0,0,0-1.2-1.2-1.2h-1.2
		c0,0-1.2,0-1.2,1.2v14.3L362.4,37c-1.2-1.2-3.6,0-3.6,1.2v49c0,4.8,2.4,8.4,6,10.7l13.1,7.2c-11.9,14.3-19.1,37-19.1,51.3v162.4
		h82.4V157.6C441.2,142.1,434,119.4,422.1,105.1z"/>
</g>
</svg>
