<?xml version="1.0" encoding="utf-8"?>
<!-- Generator: Adobe Illustrator 18.1.1, SVG Export Plug-In . SVG Version: 6.00 Build 0)  -->
<svg version="1.1" id="Layer_1" xmlns="http://www.w3.org/2000/svg" xmlns:xlink="http://www.w3.org/1999/xlink" x="0px" y="0px"
	 viewBox="0 0 800 600" enable-background="new 0 0 800 600" xml:space="preserve">
<path fill="#FFFFFF" d="M692.9,180.3l-191-52.7c0-0.4,0-0.4,0-0.7v-16.3c0.7-6.2-0.8-10.4-3.9-13.2c-1.1-0.8-2-1.1-3.1-2
	c0-6.6-0.8-12.4-2.7-16.7c-0.4-0.8-0.7-1.1-0.7-2c6.6,2,15.9,1.1,27.8-1.5c-5.1-1.1-14.8-1.5-28.7-1.5c-0.4,0-0.8,0.4-0.8,0.7
	c-0.7-1.1-1.5-1.5-2.4-2.4c-3.5-7-7-7-11.7,0c-0.4,0.7-1.1,1.5-1.5,2.7c-0.4-0.4-0.8-0.4-1.5-0.4c-10.1-0.7-18.5,0-24.7,1.1
	c3.5,1.5,11.7,2.4,24.4,3.1c0,0.4-0.4,0.7-0.4,1.1c-2.4,5.5-3.1,10.8-2.4,15.5c-0.7,0.8-2,1.1-2.4,2c-3.1,3.1-4.2,9.3-3.8,17.8v11.7
	h-28.2c0-6.2-0.4-12.1-0.7-17l-0.4-2.7c-0.4-2.4-0.8-5.1-1.1-7c-0.4-4.2-1.1-7.7-2-11.7c-1.1-3.9-2.4-7.7-3.5-11.7
	c-1.5-3.9-3.1-7.3-4.6-10.4h-2.7l-1.1-6.2c-2-2.4-3.5-4.2-5.5-5.1c-1.5-0.8-3.1-1.1-4.2-0.8c-0.4,0-0.4,0-0.4,0
	c-2.7,0.8-5.1,2.7-7.3,5.8c-0.7,1.1-1.1,2-2,3.1c-2.7,4.6-5.3,10.1-7.3,16.3c-1.1,3.1-2,5.8-2.7,8.9c-1.1,3.9-2,7.7-2.7,11.7
	c0,1.5-0.4,2.7-0.7,4.2c0,0.7,0,2-0.4,2.7v2.7c-0.4,2.4-0.7,4.6-0.7,7v0.7l-0.8,5.1h0.4c-0.4,0.8-0.4,2-0.4,2.7c0,0.4,0,0.7,0,1.5
	h-26.7v-15.6c0.7-6.2-0.4-10.4-3.9-13.2c-0.7-0.8-2-1.1-3.1-2c0-6.6-0.8-12.4-2.7-16.7c-0.4-0.8-0.8-1.1-0.8-2
	c6.6,2,15.9,1.1,27.5-1.5c-5.5-1.1-14.8-1.5-29.1-1.5c0,0-0.4,0-0.4,0.4c-0.7-0.7-1.5-1.1-2-2c-3.1-7-7.3-7-11.7,0
	c-0.4,0.7-1.1,2-1.5,2.7c-0.4,0-1.1,0-2-0.4c-10.4-0.7-18.5,0-25.2,1.1c3.9,1.5,11.7,2.4,24.7,3.1c0-0.4,0.4-0.8,0.7-0.8
	c-0.4,0.8-0.7,1.1-0.7,2c-2.4,5.5-3.5,10.8-2.4,15.5c-0.8,0.4-1.1,0.8-2,1.5c-3.5,3.1-5.1,8.9-4.2,18.3V127l-192.2,52.6
	c-15.9,3.9-25.6,10.4-29.5,19.8c-3.5,15.2-2.4,27.1,3.5,36.4c5.5,8.9,15.2,15.2,29.1,19l172.6,20.5c4.6,0.4,9.3,0.4,13.9-0.4
	c7-0.8,13.5-2.7,20.5-5.8l29.1-7.7c1.5-0.4,3.1-0.4,4.6-0.4c5.8-0.4,9.3,1.5,10.8,5.5l2.7,5.8v37.9c0,5.5,0,10.8,0,16.3
	c0,1.5,0,3.1,0,5.1c0.4,7.7,0.4,15.9,0.8,23.6c0,3.9,0.4,7.7,0.4,11.9c0,2,0,4.2,0.4,6.2c0.8,20.1,2.4,39.5,4.2,59.3
	c1.1,9.7,2,19.4,3.1,29.1c0.4,3.1,0.8,6.6,1.5,9.7c-8.9,0.8-17,1.5-25.2,2.7c-19.8,3.1-36.8,8.1-51.1,15.2
	c-9.3,4.6-13.9,10.8-13.6,17.4c0.8,2.4,2,4.2,3.1,5.8c2.7,3.5,7.3,6.2,13.9,8.6c10.8,2.7,22.9,5.1,35.3,6.6
	c14.8,1.5,30.6,2.4,47.2,2c0.4,0.4,0.4,1.1,0.8,1.5c0.8,3.9,2,7.7,3.1,11.2c0.4,1.1,0.7,2.7,1.5,3.9c0.7-3.1,1.5-6.2,2.4-8.9
	c0.4-3.1,1.1-6.2,2-8.9c3.8,0.4,8.1,0.4,11.9,0.8c20.5,0.7,41.9-1.1,63.9-5.8c8.9-2.4,15.9-5.8,22.1-10.8c8.6-9.3,2-18.5-19.4-27.5
	c-0.8-0.4-2-0.7-2.7-1.1c-13.6-5.1-29.8-8.9-49.2-10.8c-5.5-0.7-11.2-1.1-17-1.5c0.7-5.8,1.5-11.7,2.4-17c0.4-5.8,1.1-11.2,1.5-16.7
	c1.5-13.2,2.7-26.7,3.9-39.9c0.4-8.1,1.1-16.3,1.5-24.4c0-1.1,0-2.7,0.4-3.9c0-4.6,0.4-9.3,0.4-13.9c0.4-7.3,0.8-15.2,1.1-22.9
	c0-0.4,0-0.7,0-1.5c0-1.5,0-3.1,0-4.6c0.4-10.4,0.4-20.9,0.7-31.1c0-7.3,0-14.8,0-22.1l7-10.4c2.4-1.5,5.1-2.4,8.9-2
	c3.1,0,6.6,0.7,10.8,2l31.3,8.9c7.3,3.1,21.4,3.1,41,0l129-13.5c0,0,0.4,0,0.8,0c6.2-0.4,12.4-0.7,17.8-1.5
	c3.8-0.7,7.7-1.5,10.8-2.4c8.1-2.7,14.8-6.2,20.1-10.8c2-1.5,3.8-3.5,5.5-5.5c3.8-5.1,7-10.8,8.9-17.8
	C727.7,199.2,716.1,185.7,692.9,180.3z"/>
</svg>
