<?xml version="1.0" encoding="utf-8"?>
<!-- Generator: Adobe Illustrator 18.1.1, SVG Export Plug-In . SVG Version: 6.00 Build 0)  -->
<svg version="1.1" id="Layer_1" xmlns="http://www.w3.org/2000/svg" xmlns:xlink="http://www.w3.org/1999/xlink" x="0px" y="0px"
	 viewBox="159 0 490 427" enable-background="new 159 0 490 427" xml:space="preserve">
<path d="M603.9,148.7L468,111.2c0-0.3,0-0.3,0-0.5V99.1c0.5-4.4-0.6-7.4-2.8-9.4c-0.8-0.6-1.4-0.8-2.2-1.4c0-4.7-0.6-8.8-1.9-11.9
	c-0.3-0.6-0.5-0.8-0.5-1.4c4.7,1.4,11.3,0.8,19.8-1.1c-3.6-0.8-10.5-1.1-20.4-1.1c-0.3,0-0.6,0.3-0.6,0.5c-0.5-0.8-1.1-1.1-1.7-1.7
	c-2.5-5-5-5-8.3,0c-0.3,0.5-0.8,1.1-1.1,1.9c-0.3-0.3-0.6-0.3-1.1-0.3c-7.2-0.5-13.2,0-17.6,0.8c2.5,1.1,8.3,1.7,17.4,2.2
	c0,0.3-0.3,0.5-0.3,0.8c-1.7,3.9-2.2,7.7-1.7,11c-0.5,0.6-1.4,0.8-1.7,1.4c-2.2,2.2-3,6.6-2.7,12.7v8.3h-20.1
	c0-4.4-0.3-8.6-0.5-12.1l-0.3-1.9c-0.3-1.7-0.6-3.6-0.8-5c-0.3-3-0.8-5.5-1.4-8.3c-0.8-2.8-1.7-5.5-2.5-8.3
	c-1.1-2.8-2.2-5.2-3.3-7.4h-1.9l-0.8-4.4c-1.4-1.7-2.5-3-3.9-3.6c-1.1-0.6-2.2-0.8-3-0.6c-0.3,0-0.3,0-0.3,0
	c-1.9,0.6-3.6,1.9-5.2,4.1c-0.5,0.8-0.8,1.4-1.4,2.2c-1.9,3.3-3.8,7.2-5.2,11.6c-0.8,2.2-1.4,4.1-1.9,6.3c-0.8,2.8-1.4,5.5-1.9,8.3
	c0,1.1-0.3,1.9-0.5,3c0,0.5,0,1.4-0.3,1.9v1.9c-0.3,1.7-0.5,3.3-0.5,5v0.5l-0.6,3.6h0.3c-0.3,0.6-0.3,1.4-0.3,1.9c0,0.3,0,0.5,0,1.1
	h-19V99.1c0.5-4.4-0.3-7.4-2.8-9.4c-0.5-0.6-1.4-0.8-2.2-1.4c0-4.7-0.6-8.8-1.9-11.9c-0.3-0.6-0.6-0.8-0.6-1.4
	c4.7,1.4,11.3,0.8,19.6-1.1c-3.9-0.8-10.5-1.1-20.7-1.1c0,0-0.3,0-0.3,0.3c-0.5-0.5-1.1-0.8-1.4-1.4c-2.2-5-5.2-5-8.3,0
	c-0.3,0.5-0.8,1.4-1.1,1.9c-0.3,0-0.8,0-1.4-0.3c-7.4-0.5-13.2,0-17.9,0.8c2.8,1.1,8.3,1.7,17.6,2.2c0-0.3,0.3-0.6,0.5-0.6
	c-0.3,0.6-0.5,0.8-0.5,1.4c-1.7,3.9-2.5,7.7-1.7,11c-0.6,0.3-0.8,0.6-1.4,1.1c-2.5,2.2-3.6,6.3-3,13v8.6L201,148.2
	c-11.3,2.8-18.2,7.4-21,14.1c-2.5,10.8-1.7,19.3,2.5,25.9c3.9,6.3,10.8,10.8,20.7,13.5L326,216.3c3.3,0.3,6.6,0.3,9.9-0.3
	c5-0.6,9.6-1.9,14.6-4.1l20.7-5.5c1.1-0.3,2.2-0.3,3.3-0.3c4.1-0.3,6.6,1.1,7.7,3.9l1.9,4.1v27c0,3.9,0,7.7,0,11.6
	c0,1.1,0,2.2,0,3.6c0.3,5.5,0.3,11.3,0.6,16.8c0,2.8,0.3,5.5,0.3,8.5c0,1.4,0,3,0.3,4.4c0.6,14.3,1.7,28.1,3,42.2
	c0.8,6.9,1.4,13.8,2.2,20.7c0.3,2.2,0.6,4.7,1.1,6.9c-6.3,0.6-12.1,1.1-17.9,1.9c-14.1,2.2-26.2,5.8-36.4,10.8
	c-6.6,3.3-9.9,7.7-9.7,12.4c0.6,1.7,1.4,3,2.2,4.1c1.9,2.5,5.2,4.4,9.9,6.1c7.7,1.9,16.3,3.6,25.1,4.7c10.5,1.1,21.8,1.7,33.6,1.4
	c0.3,0.3,0.3,0.8,0.6,1.1c0.6,2.8,1.4,5.5,2.2,8c0.3,0.8,0.5,1.9,1.1,2.8c0.5-2.2,1.1-4.4,1.7-6.3c0.3-2.2,0.8-4.4,1.4-6.3
	c2.7,0.3,5.8,0.3,8.5,0.6c14.6,0.5,29.8-0.8,45.5-4.1c6.3-1.7,11.3-4.1,15.7-7.7c6.1-6.6,1.4-13.2-13.8-19.6
	c-0.6-0.3-1.4-0.5-1.9-0.8c-9.7-3.6-21.2-6.3-35-7.7c-3.9-0.5-8-0.8-12.1-1.1c0.5-4.1,1.1-8.3,1.7-12.1c0.3-4.1,0.8-8,1.1-11.9
	c1.1-9.4,1.9-19,2.8-28.4c0.3-5.8,0.8-11.6,1.1-17.4c0-0.8,0-1.9,0.3-2.8c0-3.3,0.3-6.6,0.3-9.9c0.3-5.2,0.6-10.8,0.8-16.3
	c0-0.3,0-0.5,0-1.1c0-1.1,0-2.2,0-3.3c0.3-7.4,0.3-14.9,0.5-22.1c0-5.2,0-10.5,0-15.7l5-7.4c1.7-1.1,3.6-1.7,6.3-1.4
	c2.2,0,4.7,0.5,7.7,1.4l22.3,6.3c5.2,2.2,15.2,2.2,29.2,0l91.8-9.6c0,0,0.3,0,0.6,0c4.4-0.3,8.8-0.5,12.7-1.1
	c2.7-0.5,5.5-1.1,7.7-1.7c5.8-1.9,10.5-4.4,14.3-7.7c1.4-1.1,2.7-2.5,3.9-3.9c2.7-3.6,5-7.7,6.3-12.7
	C628.7,162.2,620.4,152.6,603.9,148.7z"/>
</svg>
